<svg width="188" height="240" viewBox="0 0 188 240" fill="none" xmlns="http://www.w3.org/2000/svg">
<g clip-path="url(#clip0_2_21)">
<path d="M0.434887 198.935C1.85238 198.911 3.422 199.037 4.86123 199.076C7.11424 199.114 9.36967 199.117 11.6227 199.081C11.5985 200.221 11.613 201.359 11.6613 202.499L14.5349 202.516L14.5422 205.483C15.9162 205.653 16.5247 205.643 17.906 205.548L17.9205 208.831L21.2964 208.826L21.3085 212.868C22.3879 212.817 23.5639 212.821 24.6506 212.804L24.6409 208.826L28.1545 208.831C28.152 207.785 28.0893 206.72 28.0434 205.674C29.415 205.67 30.4147 205.628 31.7815 205.514L31.7743 202.518L34.7831 202.487L34.7952 199.005C38.7675 199.059 41.7981 199.17 45.7922 198.954C46.012 208.6 45.7415 218.36 45.8405 228.013C45.8791 231.943 45.913 236.007 45.826 239.925C42.6336 239.915 39.4389 239.922 36.2441 239.949V224.17L36.2344 213.154C34.771 213.1 33.6047 213.115 32.1437 213.163L32.1341 216.921C30.8904 217.009 29.7869 217.023 28.5457 217.035L28.5336 220.956C27.3938 220.815 26.3868 220.835 25.2446 220.835C25.2567 222.171 25.2881 223.45 25.1867 224.786C23.9551 224.791 22.3758 224.614 21.0356 224.59L21.009 221.201C19.7678 221.111 18.884 221.06 17.6573 220.81L17.6718 216.958C16.3291 216.967 15.3946 216.931 14.0761 216.718C14.0013 215.519 14.0351 214.161 14.0399 212.95C12.8518 212.935 11.0335 213.069 9.86712 213.236L9.88161 239.951C6.67475 239.879 3.2578 239.93 0.0412739 239.93L0.0533479 207.761C0.0557627 206.383 -0.108444 199.859 0.137866 199.049L0.437302 198.937L0.434887 198.935Z" fill="#9CF25B"/>
<path d="M151.167 199.1C154.328 199.173 157.691 199.119 160.867 199.124V239.954C157.633 239.913 154.398 239.905 151.162 239.934V223.869L137.195 223.896L137.209 239.949C134.036 239.854 130.486 239.927 127.284 239.925L127.291 199.117H137.192L137.199 215.376L151.167 215.369C151.268 210.061 151.179 204.42 151.167 199.095V199.1Z" fill="#9CF25B"/>
<path d="M52.4229 199.044L83.8226 199.095C83.7791 201.897 83.8178 204.801 83.8226 207.613C82.8784 207.606 81.8907 207.618 80.949 207.579C74.7429 207.317 68.5538 207.385 62.3429 207.399L62.3477 215.383H78.9229L78.9543 223.877L62.7872 223.886L62.4902 223.93C62.2052 224.466 62.3453 230.429 62.3501 231.448L83.8009 231.276C83.7163 234.013 83.7984 237.193 83.8057 239.964C80.7244 239.818 76.6796 239.932 73.4993 239.935H52.4229V199.049V199.044Z" fill="#9CF25B"/>
<path d="M95.5348 199.124C102.108 199.09 108.681 199.098 115.252 199.146C115.257 200.255 115.293 201.395 115.314 202.506L118.611 202.535L118.623 205.912L121.856 205.917L121.868 211.822L111.683 211.781L111.702 207.39C107.57 207.385 103.236 207.314 99.1208 207.426C98.9638 210.296 99.326 212.899 99.186 215.456C104.518 215.522 109.929 215.386 115.288 215.432C115.305 216.485 115.273 217.598 115.261 218.656L118.606 218.649L118.613 221.684H121.921C121.888 225.696 121.95 229.709 122.11 233.717C120.791 233.622 119.927 233.603 118.618 233.617V236.994L115.266 236.987L115.242 239.862C114.484 240.131 97.8071 239.932 95.5493 239.932V236.805C94.2284 236.827 93.1152 236.846 91.7943 236.764C91.7484 235.471 91.845 234.733 92.0357 233.464C90.78 233.445 89.4905 233.455 88.2324 233.452C88.259 231.587 88.2662 229.721 88.2542 227.855C91.6759 227.814 95.5541 227.999 99.0894 227.994L99.0797 231.288C103.272 231.373 107.464 231.407 111.656 231.393C111.683 228.889 111.692 226.388 111.685 223.884C106.264 223.819 101.062 224.013 95.6821 224.037C95.6024 223.059 95.5855 222.152 95.5638 221.169L92.0213 221.148L92.0261 217.64L88.3797 217.707L88.3749 206.036C89.4905 206.043 90.6641 205.966 91.7822 205.91L91.7725 202.681L95.542 202.511L95.53 199.122L95.5348 199.124Z" fill="#9CF25B"/>
<path d="M71.5895 144.699C71.6088 145.956 71.6185 147.213 71.6161 148.472L75.1296 148.426L75.1248 152.482L78.6866 152.465C78.7084 154.993 78.7712 157.608 78.6794 160.133C78.4186 167.254 78.4886 174.357 78.4959 181.485C77.3609 181.475 76.2018 181.49 75.0644 181.492C75.0427 182.807 75.0572 184.163 75.0548 185.48C73.8184 185.425 72.582 185.383 71.3456 185.359C71.3553 186.71 71.3456 187.627 71.2321 188.984C69.4621 189.233 65.2531 189.119 63.2584 189.117L48.7696 189.088V185.529C47.5791 185.485 46.1254 185.558 44.918 185.59C44.8962 184.326 44.9132 183.013 44.9132 181.744C43.8192 181.691 42.7278 181.606 41.6387 181.492L41.6556 152.288C42.8412 152.302 43.783 152.426 44.9397 152.639L44.8962 148.406C46.2679 148.481 47.4052 148.498 48.7744 148.491V144.692L71.5895 144.699ZM65.7892 154.374C61.882 154.398 57.4653 154.267 53.6282 154.377L53.6089 156.613C52.8941 156.64 52.1407 156.681 51.4259 156.691C51.3414 163.68 51.409 170.781 51.409 177.778L53.5799 177.785L53.5123 179.845C54.6762 179.845 65.4487 180.046 65.7433 179.845L65.794 179.719V177.783L68.5589 177.78L68.5493 156.681C67.5592 156.689 66.7623 156.684 65.7771 156.613L65.7892 154.372V154.374Z" fill="#9CF25B"/>
<path d="M104.672 148.576C105.923 148.569 107.176 148.571 108.427 148.578C108.514 149.864 108.558 151.157 108.553 152.448C109.726 152.482 110.975 152.462 112.153 152.465L112.163 159.032C113.066 159.003 113.972 158.962 114.875 158.916L114.867 177.387C114.867 181.252 114.814 185.264 114.93 189.112C111.793 189.102 108.654 189.119 105.515 189.161C105.421 185.15 105.645 180.861 105.476 176.873C101.255 176.829 96.981 176.868 92.7575 176.873C92.7213 180.888 92.6899 185.199 92.8541 189.192C90.4006 188.969 85.4237 189.153 82.8206 189.185L82.7988 159.58C83.2721 159.605 83.6271 159.677 84.0425 159.469C84.1898 158.741 84.0787 153.486 84.069 152.467L87.8506 152.477C87.8723 151.194 87.8361 149.83 87.824 148.54C89.1449 148.557 90.4683 148.559 91.7892 148.547C91.7626 147.29 91.7795 145.97 91.7771 144.706L104.672 144.699V148.578V148.576ZM101.137 154.161C99.4055 154.139 97.5654 154.09 95.846 154.127V156.759C94.897 156.73 93.9021 156.681 92.9603 156.689L92.9458 167.821L101.204 167.829L103.967 167.807L103.957 156.88C102.996 156.851 102.129 156.81 101.176 156.73L101.142 154.158L101.137 154.161Z" fill="#9CF25B"/>
<path d="M139.249 144.978C141.713 144.818 144.796 144.901 147.305 144.901L147.317 148.523L151.154 148.481C151.099 149.854 151.082 151.23 151.104 152.603C152.178 152.666 153.463 152.639 154.554 152.644C154.538 154.755 154.554 156.866 154.603 158.974C150.867 159 147.136 158.957 143.403 158.845C143.321 157.39 143.379 155.849 143.403 154.386C139.602 154.33 135.666 154.389 131.85 154.393L131.863 156.555L129.914 156.567V162.373L138.363 162.38L138.445 164.859C140.471 164.755 145.224 164.643 147.168 164.786C147.568 165.243 147.38 166.771 147.344 167.416C148.59 167.428 149.836 167.416 151.082 167.382L151.099 171.463C152.408 171.359 153.415 171.344 154.719 171.344C154.675 174.801 154.728 178.362 154.738 181.829C153.516 181.827 152.294 181.834 151.075 181.851C151.08 183.125 151.099 184.396 151.128 185.67C149.853 185.633 148.58 185.621 147.303 185.633V189.294C143.702 189.306 140.184 189.25 136.591 189.226C133.473 189.296 130.356 189.321 127.241 189.296L127.228 185.648L123.406 185.619C123.329 184.418 123.297 183.214 123.304 182.011L119.745 182.028L119.735 175.352C123.056 175.296 127.088 175.017 130.324 175.141C130.421 176.497 130.38 178.367 130.385 179.762C135.023 179.711 138.783 179.675 143.408 179.966C143.258 177.239 143.321 174.474 143.345 171.742C138.216 171.601 132.384 171.72 127.236 171.752V168.933C125.929 168.748 124.703 168.789 123.384 168.789L123.365 164.966L119.798 164.93C120.095 161.084 119.977 156.465 119.941 152.555C121.068 152.555 122.247 152.615 123.377 152.656L123.365 148.649C124.645 148.683 125.944 148.765 127.243 148.799L127.233 145.005C131.054 145.012 135.497 145.136 139.247 144.968L139.249 144.978Z" fill="#9CF25B"/>
<path d="M7.30474 144.905C14.723 144.748 22.4939 144.903 29.9556 144.874L29.987 148.685C31.2789 148.566 32.4719 148.447 33.771 148.418L33.73 152.533C34.8529 152.521 36.053 152.559 37.1832 152.574L37.1904 159.474C33.6648 159.367 29.8735 159.398 26.4059 159.202C26.3721 158.309 26.389 157.331 26.389 156.429L24.1263 156.441L24.0973 154.352C20.5934 154.209 16.9567 154.243 13.4384 154.229L13.4045 156.591C12.3879 156.584 11.649 156.604 10.6517 156.424L10.6444 177.293H13.3273C13.308 178.173 13.3273 179.078 13.3369 179.959L24.1166 179.968V177.249L26.3189 177.295C26.3455 176.611 26.3552 175.91 26.3696 175.226L37.1832 175.204L37.1904 181.672C35.9299 181.781 35.0509 181.822 33.7976 181.781L33.7807 185.677H29.9532L29.9436 189.318C22.4552 189.214 14.7665 189.306 7.26127 189.306C7.22988 188.127 7.24678 186.841 7.23954 185.657L3.64631 185.665L3.70185 181.914L0.183472 181.924C0.183472 172.521 0.475664 161.616 -0.00488281 152.31C1.15181 152.421 2.42683 152.482 3.59801 152.557V148.78L7.3144 148.792C7.29267 147.494 7.28542 146.196 7.29991 144.898L7.30474 144.905Z" fill="#9CF25B"/>
<path d="M156.987 144.903C167.237 144.777 177.73 144.888 188 144.888C187.908 148.052 187.891 151.218 187.947 154.384L177.281 154.372C177.375 156.931 177.293 160.017 177.293 162.625L177.281 178.571C177.288 182.183 177.329 185.793 177.404 189.403L167.824 189.384L167.819 154.345L157.013 154.36C156.912 151.368 156.989 147.926 156.991 144.901L156.987 144.903Z" fill="#9CF25B"/>
<path d="M0.434887 134.66C1.85238 134.685 3.422 134.558 4.86123 134.52C7.11424 134.481 9.36967 134.478 11.6227 134.515C11.5985 133.375 11.613 132.237 11.6613 131.097L14.5349 131.08L14.5422 128.113C15.9162 127.943 16.5247 127.952 17.906 128.047L17.9205 124.765L21.2964 124.77L21.3085 120.728C22.3879 120.779 23.5639 120.774 24.6506 120.791L24.6409 124.77L28.1545 124.765C28.152 125.81 28.0893 126.875 28.0434 127.921C29.415 127.926 30.4147 127.967 31.7815 128.081L31.7743 131.075L34.7831 131.106L34.7952 134.588C38.7675 134.534 41.7981 134.423 45.7922 134.639C46.012 124.993 45.7415 115.233 45.8405 105.58C45.8791 101.65 45.913 97.5885 45.826 93.6681C42.6336 93.6778 39.4389 93.6705 36.2441 93.6439V109.425L36.2344 120.442C34.771 120.495 33.6047 120.48 32.1437 120.432L32.1341 116.674C30.8904 116.587 29.7869 116.572 28.5457 116.557L28.5336 112.637C27.3938 112.778 26.3868 112.758 25.2446 112.758C25.2567 111.422 25.2881 110.141 25.1867 108.806C23.9551 108.802 22.3758 108.976 21.0356 109.003L21.009 112.394C19.7678 112.484 18.884 112.535 17.6573 112.785L17.6718 116.638C16.3291 116.628 15.3946 116.664 14.0761 116.878C14.0013 118.076 14.0351 119.435 14.0399 120.648C12.8518 120.662 11.0335 120.529 9.86712 120.361L9.88161 93.6463C6.67475 93.7191 3.2578 93.6657 0.0412739 93.6657L0.0533479 125.835C0.0557627 127.213 -0.108444 133.736 0.137866 134.546L0.437302 134.658L0.434887 134.66Z" fill="#9CF25B"/>
<path d="M94.9934 93.4231C101.6 93.3891 108.205 93.3964 114.809 93.4449C114.814 94.5633 114.85 95.7132 114.872 96.8316L118.185 96.8607L118.195 100.267L121.445 100.272L121.457 106.228L111.221 106.186L111.24 101.756C107.087 101.752 102.733 101.681 98.5962 101.793C98.4393 104.687 98.8039 107.312 98.6639 109.891C104.022 109.956 109.46 109.82 114.845 109.867C114.862 110.927 114.831 112.052 114.819 113.12L118.18 113.113L118.188 116.172H121.513C121.479 120.218 121.542 124.262 121.701 128.307C120.378 128.212 119.508 128.19 118.19 128.205V131.611L114.821 131.604L114.797 134.503C114.034 134.774 97.2778 134.573 95.0054 134.575V131.424C93.6773 131.446 92.5616 131.465 91.2335 131.383C91.1852 130.08 91.2842 129.335 91.475 128.054C90.2145 128.035 88.9177 128.045 87.6523 128.042C87.6789 126.16 87.6861 124.279 87.6765 122.399C91.1152 122.356 95.0127 122.545 98.5673 122.538L98.5552 125.861C102.769 125.946 106.98 125.98 111.194 125.966C111.221 123.442 111.231 120.919 111.226 118.394C105.775 118.328 100.55 118.525 95.1431 118.547C95.0634 117.562 95.0441 116.647 95.0247 115.657L91.4653 115.636L91.4702 112.098L87.8045 112.166L87.7996 100.395C88.9201 100.403 90.0985 100.325 91.2238 100.267L91.2142 97.0111L95.0006 96.8413L94.9885 93.4255L94.9934 93.4231Z" fill="#9CF25B"/>
<path d="M52.4033 93.6439L83.8031 93.6948C83.7596 96.4968 83.7982 99.4008 83.8031 102.213C82.8589 102.205 81.8712 102.217 80.9294 102.179C74.7234 101.917 68.5342 101.984 62.3233 101.997L62.3282 109.981H78.9034L78.9348 118.474L62.7677 118.484L62.4707 118.527C62.1857 119.064 62.3258 125.027 62.3306 126.046L83.7813 125.876C83.6968 128.612 83.7789 131.793 83.7862 134.563C80.7049 134.418 76.6601 134.532 73.4798 134.534L52.4033 134.529V93.6463V93.6439Z" fill="#9CF25B"/>
<path d="M125.36 93.7045C135.611 93.5784 146.103 93.69 156.371 93.6875C156.279 96.8535 156.262 100.019 156.318 103.183L145.651 103.171C145.746 105.73 145.664 108.816 145.664 111.422L145.651 127.37C145.661 130.983 145.7 131.439 145.775 135.049L136.195 135.029L136.188 103.144L125.382 103.159C125.28 100.167 125.36 96.7273 125.36 93.7021V93.7045Z" fill="#9CF25B"/>
<path d="M28.9443 0L63.5026 0.014556L63.5098 2.87967C65.7363 2.89665 67.9627 2.8918 70.1892 2.86026L70.1191 6.18146C72.1162 6.02863 74.2774 6.02863 76.2938 5.99466L76.3059 9.46385L82.3815 9.50509L82.355 13.0835L85.714 13.0786C85.6995 14.0442 85.7212 15.0121 85.7792 15.9777C86.6606 16.0092 87.6023 16.0019 88.4886 16.0116L88.5006 19.0854L91.8017 19.0684C91.7196 21.0626 91.8113 23.2557 91.78 25.2911C90.7947 25.3809 89.469 25.376 88.4572 25.4003C88.5345 26.5041 88.6021 27.2659 88.5248 28.3794L82.5433 28.3964L82.5361 25.3251L79.4137 25.3542L79.3944 22.2344L76.388 22.2465L76.3952 19.0587C75.2313 19.0975 74.0649 19.0927 72.9034 19.049C72.8624 17.9646 72.8962 16.7928 72.9034 15.7011C70.9209 15.6841 68.8465 15.7011 66.8761 15.5895L66.8422 12.7559C64.7051 12.7632 62.4376 12.8093 60.315 12.7074C59.4264 12.6128 58.3735 12.6298 57.468 12.6225L57.4776 9.96118C49.9676 9.96118 42.9743 9.7574 35.3604 9.97574L35.3435 12.739C32.1246 12.7923 28.8114 12.7608 25.5877 12.7681L25.578 15.7618C23.593 15.7108 21.6057 15.689 19.6207 15.6938C19.6279 16.7807 19.5603 17.9791 19.5241 19.0733L15.9285 19.1024C16.0033 20.1771 16.013 21.2591 16.0347 22.3362C15.0301 22.2974 14.0256 22.2635 13.021 22.2368L13.0162 25.4828C12.0068 25.4245 11.0022 25.3396 9.99769 25.2232L9.86487 28.246C8.06101 28.491 5.41438 28.411 3.56705 28.3964L3.58396 25.4973L0.507493 25.4901L0.478516 19.066C1.48066 19.0902 2.51903 19.0708 3.52359 19.0684C3.57913 18.1247 3.55015 16.9675 3.55256 16.0068H6.61213L6.61696 13.0932H9.98078L9.97595 9.59C11.973 9.59728 14.1246 9.5148 16.1337 9.48083V6.07715C18.2491 6.07229 20.3645 6.08442 22.4798 6.11596C22.5112 4.93935 22.504 4.06114 22.4388 2.88695C24.6073 2.90878 26.7758 2.90878 28.9418 2.8918L28.937 0.00727802L28.9443 0Z" fill="#9CF25B"/>
<path d="M59.4045 22.0184C59.7691 21.982 59.9019 21.9432 60.2617 22.0451C60.7157 22.5982 60.4791 24.18 60.4694 24.9587L66.8662 24.9757V28.6026C67.9046 28.6244 68.9913 28.6099 70.0296 28.6123C70.0127 29.5778 70.0345 30.4779 70.0586 31.4434C71.1042 31.3998 72.0991 31.3149 73.1641 31.2833L73.1592 34.704L76.5061 34.6555L76.5013 40.9024C75.4219 40.9704 74.2676 40.9874 73.1809 41.0213C73.164 42.1955 73.1496 43.2169 73.0554 44.391C71.9325 44.4056 70.7806 44.391 69.6577 44.391C69.595 43.3309 69.5418 42.2731 69.4984 41.213C68.3851 41.2008 67.2743 41.179 66.1611 41.1475C66.1321 40.0994 66.1128 38.8597 66.248 37.8311C65.0141 37.8772 63.7777 37.8966 62.5389 37.8869C62.551 36.8728 62.551 35.8588 62.5437 34.8447L56.5236 34.8617C56.5405 33.7481 56.5453 32.6346 56.5405 31.5186C55.7002 31.4944 54.7801 31.4823 53.9398 31.5041C48.0814 31.6666 42.2304 31.5575 36.372 31.5672C36.2996 32.5133 36.2972 33.6123 36.273 34.5706L36.2006 34.7986C35.7828 34.949 30.7431 34.8399 29.8979 34.8326L29.8931 37.7147C28.792 37.6395 27.3865 37.7802 26.2685 37.8675C26.283 38.998 26.2902 40.1285 26.2902 41.2591C25.1577 41.2275 23.9334 41.2518 22.796 41.2518L22.8081 44.4007L19.5432 44.391L19.5263 41.2372L16.1601 41.2469L16.1553 34.7501C17.2178 34.7307 18.3431 34.7501 19.4104 34.7525L19.4177 31.3197C20.485 31.2882 21.6007 31.3003 22.6728 31.293L22.6439 28.3697L25.9232 28.3406C25.9642 27.2173 25.9739 26.0941 25.9521 24.9709C28.1086 24.9757 30.2674 24.9612 32.4238 24.9272L32.4118 22.0378L59.4069 22.0087L59.4045 22.0184Z" fill="#9CF25B"/>
<path d="M38.5037 43.7215C43.6062 43.5978 49.0057 43.6851 54.1396 43.6754C54.1951 44.6774 54.1782 45.8103 54.1879 46.8219L57.5783 46.8365L57.571 49.8181C58.5804 49.8302 59.5922 49.8714 60.5992 49.9418L60.5895 66.7467C59.5922 66.7249 58.5418 66.7395 57.5372 66.7346C57.4744 67.9767 57.4986 69.3571 57.4962 70.6089L53.8715 70.5992L53.8546 74.2383C48.6049 74.1097 43.8767 74.0248 38.6124 74.0199C38.581 73.0107 38.6945 71.8462 38.7693 70.8273C37.504 70.7715 36.2362 70.7302 34.9684 70.7011C35.1013 69.5269 35.1351 68.1878 35.1906 66.9942C34.1764 66.936 32.9666 66.9627 31.9379 66.9578C31.9306 65.5337 32.0369 59.1897 32.0634 57.7463C32.0876 55.1359 32.0948 52.5279 32.0852 49.9175C33.0607 49.9685 34.1208 49.9539 35.1061 49.9612L35.0964 46.8171L38.4916 46.8122L38.5037 43.7167V43.7215ZM50.6695 52.6419C47.7379 52.6468 44.7074 52.6153 41.783 52.6662C41.7854 53.8913 41.8989 54.9418 42.0148 56.1548C40.9209 56.1499 39.827 56.1548 38.7331 56.1669C38.7259 58.149 38.6051 60.2863 38.6389 62.2174C39.7039 62.1592 40.8219 62.0815 41.8844 62.0718C41.8337 63.1514 41.7396 64.4372 41.7854 65.4998C44.3717 65.5095 47.7114 65.4901 50.3025 65.313L50.5947 65.2329C50.7854 64.6895 50.7057 62.7972 50.7371 62.0912L54.0478 62.05L54.0575 56.116L50.6647 56.1451L50.6695 52.6444V52.6419Z" fill="#9CF25B"/>
</g>
<defs>
<clipPath id="clip0_2_21">
<rect width="188" height="240" fill="white"/>
</clipPath>
</defs>
</svg>
