<svg width="16" height="16" viewBox="0 0 16 16" fill="none" xmlns="http://www.w3.org/2000/svg">
<rect width="16" height="16" transform="matrix(-1 0 0 1 16 0)" fill="black"/>
<path d="M11.0127 1L4.95806 1.00256L4.95679 1.50662C4.56671 1.50961 4.17664 1.50875 3.78656 1.5032L3.79883 2.0875C3.44894 2.06061 3.07028 2.06061 2.71701 2.05464L2.7149 2.66497L1.65043 2.67223L1.65509 3.30177L1.06658 3.30091C1.06912 3.47078 1.06531 3.64108 1.05516 3.81094C0.900736 3.81649 0.735735 3.81521 0.580465 3.81692L0.57835 4.35768L7.00953e-07 4.3547C0.0143854 4.70553 -0.00169177 5.09136 0.00380826 5.44945C0.176424 5.46525 0.408695 5.46439 0.585965 5.46866C0.572427 5.66286 0.560581 5.79687 0.574119 5.99278L1.62209 5.99577L1.62335 5.45543L2.1704 5.46055L2.17378 4.91168L2.70051 4.91381L2.69925 4.35299C2.90317 4.35982 3.10752 4.35896 3.31102 4.35128C3.31821 4.1605 3.31229 3.95435 3.31102 3.76229C3.65836 3.7593 4.02179 3.76229 4.36702 3.74266L4.37295 3.24415C4.74737 3.24543 5.14464 3.25354 5.51653 3.23561C5.67222 3.21896 5.85668 3.22195 6.01534 3.22067L6.01364 2.75247C7.32942 2.75247 8.55466 2.71661 9.88862 2.75503L9.89159 3.24116C10.4556 3.25055 11.036 3.245 11.6008 3.24628L11.6025 3.77296C11.9503 3.764 12.2985 3.76016 12.6463 3.76101C12.645 3.95222 12.6568 4.16306 12.6632 4.35555L13.2931 4.36067C13.28 4.54975 13.2783 4.7401 13.2745 4.9296C13.4505 4.92277 13.6265 4.9168 13.8025 4.9121L13.8034 5.48317C13.9802 5.47293 14.1562 5.45799 14.3322 5.4375L14.3555 5.9693C14.6715 6.01241 15.1352 5.99833 15.4589 5.99577L15.4559 5.48573L15.9949 5.48445L16 4.35427C15.8244 4.35854 15.6425 4.35512 15.4665 4.3547C15.4568 4.18867 15.4618 3.98508 15.4614 3.81607H14.9254L14.9245 3.30347H14.3352L14.336 2.68716C13.9861 2.68844 13.6092 2.67393 13.2572 2.66796V2.06915C12.8866 2.0683 12.5159 2.07043 12.1453 2.07598C12.1398 1.86898 12.1411 1.71447 12.1525 1.5079C11.7726 1.51174 11.3927 1.51174 11.0132 1.50875L11.014 1.00128L11.0127 1Z" fill="#9CF25B"/>
<path d="M5.40045 5.00689C5.32794 5.0004 5.30154 4.99347 5.22999 5.01165C5.13973 5.11033 5.18678 5.39252 5.1887 5.53145L3.91677 5.53448V6.18154C3.71031 6.18543 3.49424 6.18284 3.28777 6.18327C3.29113 6.35553 3.28681 6.5161 3.28201 6.68836C3.0741 6.68057 2.87628 6.66542 2.66453 6.65979L2.66549 7.27006L2 7.2614L2.00096 8.37589C2.21559 8.38801 2.4451 8.39104 2.66117 8.39709C2.66453 8.60657 2.66741 8.78879 2.68614 8.99827C2.90941 9.00087 3.13844 8.99827 3.36172 8.99827C3.3742 8.80913 3.38476 8.62043 3.39341 8.43129C3.61476 8.42912 3.83563 8.42523 4.05698 8.4196C4.06274 8.23263 4.06658 8.01146 4.03969 7.82795C4.28505 7.83617 4.53089 7.83963 4.77721 7.8379C4.77481 7.65699 4.77481 7.47607 4.77625 7.29516L5.97327 7.29819C5.96991 7.09953 5.96895 6.90087 5.96991 6.70177C6.137 6.69745 6.31994 6.69528 6.48704 6.69918C7.65189 6.72818 8.8153 6.7087 9.98015 6.71043C9.99456 6.87923 9.99504 7.07529 9.99984 7.24625L10.0142 7.28694C10.0973 7.31377 11.0994 7.29429 11.2674 7.29299L11.2684 7.80717C11.4874 7.79376 11.7668 7.81886 11.9891 7.83444C11.9862 8.03613 11.9848 8.23782 11.9848 8.43951C12.21 8.43388 12.4534 8.43821 12.6796 8.43821L12.6772 9L13.3263 8.99827L13.3297 8.43561L13.999 8.43735L14 7.27828C13.7887 7.27482 13.565 7.27828 13.3528 7.27871L13.3513 6.66628C13.1391 6.66066 12.9173 6.66282 12.7041 6.66152L12.7098 6.13999L12.0578 6.13479C12.0496 5.9344 12.0477 5.73401 12.052 5.53362C11.6232 5.53448 11.194 5.53189 10.7652 5.52583L10.7676 5.01035L5.39997 5.00516L5.40045 5.00689Z" fill="#9CF25B"/>
<path d="M9.62544 9.01315C8.55729 8.98888 7.42696 9.00601 6.35225 9.00411C6.34062 9.20067 6.34416 9.42294 6.34214 9.6214L5.6324 9.62426L5.63391 10.2092C5.42261 10.2116 5.2108 10.2197 5 10.2335L5.00202 13.5303C5.2108 13.526 5.4307 13.5289 5.64099 13.5279C5.65413 13.7716 5.64908 14.0424 5.64958 14.288L6.40836 14.2861L6.4119 15C7.51088 14.9748 8.50067 14.9581 9.60269 14.9572C9.60926 14.7592 9.5855 14.5307 9.56983 14.3308C9.83472 14.3199 10.1001 14.3118 10.3655 14.3061C10.3377 14.0757 10.3306 13.813 10.319 13.5788C10.5313 13.5674 10.7846 13.5727 10.9999 13.5717C11.0014 13.2923 10.9792 12.0477 10.9736 11.7646C10.9686 11.2524 10.9671 10.7408 10.9691 10.2287C10.7649 10.2387 10.5429 10.2358 10.3367 10.2373L10.3387 9.62045L9.62797 9.6195L9.62544 9.0122V9.01315ZM7.07867 10.7632C7.69236 10.7641 8.32678 10.7579 8.93895 10.7679C8.93845 11.0083 8.91469 11.2144 8.89042 11.4523C9.11942 11.4514 9.34842 11.4523 9.57741 11.4547C9.57893 11.8436 9.60421 12.2629 9.59713 12.6417C9.3742 12.6303 9.14015 12.6151 8.91772 12.6132C8.92834 12.825 8.94805 13.0772 8.93845 13.2857C8.39704 13.2876 7.69792 13.2838 7.1555 13.249L7.09434 13.2333C7.0544 13.1267 7.07108 12.7555 7.06451 12.617L6.37145 12.6089L6.36943 11.4447L7.07968 11.4504L7.07867 10.7637V10.7632Z" fill="#9CF25B"/>
</svg>
